<svg xmlns="http://www.w3.org/2000/svg" version="1.1" xmlns:xlink="http://www.w3.org/1999/xlink" width="512" height="512" x="0" y="0" viewBox="0 0 512 512" style="enable-background:new 0 0 512 512" xml:space="preserve" class=""><g><path d="m398.691 359.175 62.404 108.092-52.148-16.628a9.96 9.96 0 0 0-8.025.866 9.99 9.99 0 0 0-4.773 6.516l-11.666 53.48-58.952-102.109 5.761 1.976c13.342 4.551 26.873 3.23 39.116-3.818 12.221-7.049 20.135-18.104 22.866-31.968l1.199-6.038c.765-3.876 2.197-7.361 4.218-10.369zm-257.099 48.373c-12.243-7.026-20.169-18.093-22.899-31.99l-1.177-6.039c-.755-3.863-2.198-7.359-4.229-10.367L50.894 467.278l52.159-16.639a9.96 9.96 0 0 1 8.025.866 9.985 9.985 0 0 1 4.773 6.527l11.644 53.446 58.919-102.064-5.694 1.953c-13.376 4.551-26.896 3.23-39.128-3.819zm190.388-17.06c-18.637-6.416-38.262-1.165-51.193 13.686l-4.041 4.607c-5.472 6.271-12.465 9.446-20.757 9.446-8.303 0-15.274-3.175-20.746-9.468l-4.007-4.562c-9.302-10.678-22.056-16.406-35.398-16.406-5.228 0-10.556.888-15.806 2.686l-5.772 1.976c-7.859 2.675-15.496 1.932-22.699-2.22-7.193-4.129-11.655-10.367-13.264-18.504l-1.166-6.038c-3.785-19.325-18.148-33.678-37.451-37.451l-6.005-1.199c-8.17-1.609-14.408-6.061-18.559-13.264-4.163-7.193-4.906-14.819-2.22-22.666l1.998-5.783c6.36-18.626 1.11-38.24-13.72-51.193l-4.618-4.018c-6.249-5.461-9.413-12.443-9.413-20.768 0-8.314 3.163-15.285 9.402-20.713l4.651-4.052c14.808-12.976 20.047-32.589 13.686-51.182l-1.976-5.794c-2.697-7.859-1.954-15.496 2.22-22.699 4.14-7.182 10.378-11.644 18.526-13.243l5.983-1.165c19.348-3.785 33.711-18.149 37.496-37.507l1.166-5.961c1.598-8.158 6.072-14.408 13.276-18.57 7.204-4.14 14.83-4.884 22.678-2.187l5.783 1.976c18.637 6.371 38.251 1.121 51.204-13.709l4.029-4.629c5.428-6.249 12.399-9.413 20.724-9.413 8.314 0 15.296 3.174 20.757 9.424l4.029 4.629c12.943 14.819 32.556 20.069 51.193 13.698l5.805-1.987c7.826-2.697 15.451-1.954 22.633 2.187 7.204 4.174 11.666 10.423 13.276 18.615l1.188 5.939c3.785 19.336 18.137 33.711 37.484 37.496l5.972 1.154c8.17 1.609 14.408 6.071 18.548 13.253 4.151 7.193 4.895 14.841 2.22 22.699l-1.987 5.794c-6.36 18.626-1.11 38.239 13.698 51.182l4.618 4.052c6.261 5.439 9.435 12.41 9.435 20.713s-3.174 15.285-9.457 20.779l-4.573 4.007c-14.841 12.921-20.091 32.545-13.709 51.216l1.976 5.728c2.686 7.892 1.943 15.529-2.22 22.722-4.14 7.182-10.378 11.633-18.559 13.253l-5.983 1.188c-19.325 3.785-33.678 18.138-37.451 37.429l-1.199 6.027c-1.621 8.17-6.072 14.408-13.253 18.537-7.204 4.152-14.841 4.895-22.678 2.231zm14.53-86.036c25.13-23.954 40.826-57.731 40.826-95.105 0-72.405-58.93-131.313-131.347-131.313s-131.324 58.908-131.324 131.313c0 37.052 15.418 70.563 40.171 94.472l44.6-30.825c1.831-1.277 2.731-2.975 2.731-5.184v-10.279c-8.791-9.391-15.451-20.169-18.348-29.604-4.662-3.219-10.689-8.458-10.689-18.637v-17.505c0-8.303 3.863-13.198 7.848-16.495l-.544-19.503c-.444-15.04 4.251-28.083 13.575-37.684 11.422-11.755 29.604-18.237 51.227-18.237 21.589 0 39.771 6.482 51.182 18.237 9.324 9.602 14.019 22.644 13.575 37.707l-.544 19.481c3.985 3.297 7.848 8.192 7.848 16.495v17.505c0 10.234-5.85 15.329-10.689 18.648-2.897 9.435-9.557 20.202-18.348 29.593v10.279c0 2.209.899 3.907 2.753 5.195z" fill="#ffad55" opacity="1" data-original="#000000" class=""></path></g></svg>