<svg xmlns="http://www.w3.org/2000/svg" version="1.1" xmlns:xlink="http://www.w3.org/1999/xlink" width="512" height="512" x="0" y="0" viewBox="0 0 512 512" style="enable-background:new 0 0 512 512" xml:space="preserve" class=""><g><path d="M512 96c0-17.673-14.327-32-32-32H32C14.327 64 0 78.327 0 96v29a3 3 0 0 0 3 3h506a3 3 0 0 0 3-3zM512 147v42a3 3 0 0 1-3 3H3a3 3 0 0 1-3-3v-42a3 3 0 0 1 3-3h506a3 3 0 0 1 3 3zM387 320h42c1.654 0 3-1.346 3-3v-42c0-1.654-1.346-3-3-3h-42c-1.654 0-3 1.346-3 3v42c0 1.654 1.346 3 3 3z" fill="#ffad55" opacity="1" data-original="#000000" class=""></path><path d="M509 208H3a3 3 0 0 0-3 3v205c0 17.673 14.327 32 32 32h448c17.673 0 32-14.327 32-32V211a3 3 0 0 0-3-3zm-141 67c0-10.477 8.523-19 19-19h42c10.477 0 19 8.523 19 19v42c0 10.477-8.523 19-19 19h-42c-10.477 0-19-8.523-19-19zm-320-3h168c4.42 0 8 3.58 8 8s-3.58 8-8 8H48c-4.42 0-8-3.58-8-8s3.58-8 8-8zm0 48h120c4.42 0 8 3.58 8 8s-3.58 8-8 8H48c-4.42 0-8-3.58-8-8s3.58-8 8-8zm416 88H48c-4.42 0-8-3.58-8-8s3.58-8 8-8h416c4.42 0 8 3.58 8 8s-3.58 8-8 8z" fill="#ffad55" opacity="1" data-original="#000000" class=""></path></g></svg>