<?xml version="1.0" encoding="UTF-8"?>
<!DOCTYPE svg PUBLIC "-//W3C//DTD SVG 1.1//EN" "http://www.w3.org/Graphics/SVG/1.1/DTD/svg11.dtd">
<!-- Creator: CorelDRAW 2018 (64-Bit) -->
<svg xmlns="http://www.w3.org/2000/svg" xml:space="preserve" width="8.26772in" height="8.26772in" version="1.1" style="shape-rendering:geometricPrecision; text-rendering:geometricPrecision; image-rendering:optimizeQuality; fill-rule:evenodd; clip-rule:evenodd"
viewBox="0 0 8267.72 8267.72"
 xmlns:xlink="http://www.w3.org/1999/xlink">
 <defs>
  <style type="text/css">
   <![CDATA[
    .fil0 {fill:none}
    .fil3 {fill:black}
    .fil5 {fill:black}
    .fil4 {fill:black}
    .fil1 {fill:#FF5100}
    .fil2 {fill:white}
   ]]>
  </style>
 </defs>
 <g id="Layer_x0020_1">
  <metadata id="CorelCorpID_0Corel-Layer"/>
  <polygon class="fil0" points="-0,0 8267.72,0 8267.72,8267.72 -0,8267.72 "/>
 </g>
 <g id="Layer_x0020_2">
  <metadata id="CorelCorpID_1Corel-Layer"/>
  <path class="fil1" d="M5560.41 5812.33c21.61,666.72 -584.08,1123.28 -1247.59,1027.65l70.46 163.37c-271.16,-113.55 -491.7,-290.74 -596.68,-613.19 233.29,150.91 469.77,160.67 708.22,83.7l-111.58 150.02c597.05,80.17 1052.8,-207.53 1177.17,-811.56z"/>
 </g>
 <g id="Layer_x0020_3">
  <metadata id="CorelCorpID_2Corel-Layer"/>
  <path class="fil1" d="M4043.75 6145.36l-2661.18 215.36c-315.1,25.51 -632.15,122.35 -730.27,-277.22l-495.11 -2016.33c-177.13,-721.35 36.15,-834.56 703.32,-977.14l3002.26 -655.27c6.69,-1.46 13.24,-2.87 19.72,-4.24l-120.96 2277.17c-17.52,329.72 67.25,570.08 239.44,737.7 132.8,129.28 312.71,208.52 533.52,246.67 8.16,336 -119.22,423.24 -490.74,453.31z"/>
 </g>
 <g id="Layer_x0020_4">
  <metadata id="CorelCorpID_3Corel-Layer"/>
  <path class="fil2" d="M2263.68 4206.66c175.06,0 316.98,141.93 316.98,316.98 0,175.06 -141.92,316.98 -316.98,316.98 -175.06,0 -316.98,-141.92 -316.98,-316.98 0,-175.06 141.92,-316.98 316.98,-316.98zm-996.33 196.26c175.06,0 316.98,141.93 316.98,316.98 0,175.06 -141.92,316.98 -316.98,316.98 -175.06,0 -316.98,-141.92 -316.98,-316.98 0,-175.06 141.92,-316.98 316.98,-316.98zm1981.3 -457.51c175.06,0 316.98,141.92 316.98,316.98 0,175.06 -141.92,316.98 -316.98,316.98 -175.06,0 -316.98,-141.92 -316.98,-316.98 0,-175.06 141.92,-316.98 316.98,-316.98z"/>
 </g>
 <g id="Layer_x0020_5">
  <metadata id="CorelCorpID_4Corel-Layer"/>
  <path class="fil3" d="M4904.42 1130.05l2488.82 283.34c600.14,68.33 815.17,279.18 771.35,900.52l-188.78 2677.5c-36.64,519.7 -309.61,773.92 -834.67,736.71l-2413.06 -171.04c-537.63,-38.11 -839.72,-279.16 -809.85,-841.42l149.69 -2817.96c27.67,-520.84 282.47,-830.74 836.49,-767.65z"/>
 </g>
 <g id="Layer_x0020_6">
  <metadata id="CorelCorpID_5Corel-Layer"/>
  <path class="fil2" d="M6135.35 3161.91c165.63,56.68 253.95,236.91 197.27,402.54 -56.68,165.63 -236.91,253.95 -402.54,197.27 -165.63,-56.68 -253.95,-236.91 -197.27,-402.54 56.68,-165.63 236.91,-253.95 402.54,-197.27zm-1007.41 -129.69c165.63,56.69 253.95,236.91 197.27,402.54 -56.68,165.63 -236.91,253.95 -402.54,197.27 -165.63,-56.68 -253.95,-236.91 -197.27,-402.54 56.68,-165.63 236.91,-253.95 402.54,-197.27zm2022.7 208.66c165.63,56.68 253.95,236.91 197.27,402.54 -56.68,165.63 -236.91,253.95 -402.54,197.27 -165.63,-56.68 -253.95,-236.91 -197.27,-402.54 56.68,-165.63 236.91,-253.95 402.54,-197.27z"/>
 </g>
 <g id="Layer_x0020_7">
  <metadata id="CorelCorpID_6Corel-Layer"/>
  <path class="fil4" d="M6999.82 5452.06l-15.67 811.04c-4.78,250.11 -223.25,166.54 -342.98,54.2l-832.99 -781.35 556.47 -362.42 635.16 278.53z"/>
 </g>
 <g id="Layer_x0020_8">
  <metadata id="CorelCorpID_7Corel-Layer"/>
  <path class="fil1" d="M1550.26 6186.26l85.57 806.66c26.34,248.77 236.79,146.66 346.38,24.42l762.48 -850.3 -585.67 -313.06 -608.77 332.28z"/>
 </g>
 <g id="Layer_x0020_9">
  <metadata id="CorelCorpID_8Corel-Layer"/>
  <path class="fil5" d="M2170.39 2663.33c-99.72,-659.57 448.2,-1184.07 1118.35,-1166.98l-89.14 -153.97c282.61,80.93 522.42,231.02 664.52,538.91 -249.39,-122.48 -485.38,-104.43 -713.15,0l93.2 -162.08c-602.33,-9.54 -1021.17,329.66 -1073.78,944.12z"/>
 </g>
</svg>
